<svg width="37" height="37" viewBox="0 0 37 37" fill="none" xmlns="http://www.w3.org/2000/svg">
<path d="M35.52 0H1.48C0.661375 0 0 0.661375 0 1.48V35.52C0 36.3386 0.661375 37 1.48 37H35.52C36.3386 37 37 36.3386 37 35.52V1.48C37 0.661375 36.3386 0 35.52 0ZM22.5006 11.0491H28.9016V12.6078H22.5006V11.0491ZM18.5 23.902C18.2006 24.4703 17.7731 24.9612 17.2512 25.3358C16.7055 25.715 16.0996 25.9925 15.4568 26.1544C14.7842 26.3346 14.0903 26.4233 13.394 26.418H5.735V10.6421H13.1813C13.9351 10.6421 14.6196 10.7115 15.244 10.841C15.8638 10.9705 16.391 11.1925 16.835 11.4931C17.2744 11.7937 17.6212 12.1961 17.8664 12.6956C18.1069 13.1905 18.2318 13.8102 18.2318 14.5456C18.2318 15.3411 18.0514 15.9979 17.6906 16.5298C17.3253 17.0616 16.798 17.4917 16.0811 17.8294C17.057 18.1069 17.7739 18.6018 18.2456 19.2955C18.7266 19.9985 18.9625 20.8402 18.9625 21.83C18.9625 22.6347 18.8099 23.3239 18.5 23.902ZM31.3945 21.46H23.1435C23.1435 22.3573 23.4534 23.2175 23.9205 23.68C24.3923 24.1379 25.0675 24.3691 25.9509 24.3691C26.5891 24.3691 27.1302 24.2072 27.5927 23.8881C28.0506 23.569 28.3281 23.2314 28.4299 22.8799H31.1956C30.7516 24.2535 30.0764 25.234 29.1606 25.826C28.2541 26.418 27.1441 26.714 25.8538 26.714C24.9519 26.714 24.1425 26.566 23.4164 26.2839C22.718 26.011 22.089 25.5948 21.571 25.0583C21.0603 24.5073 20.6655 23.8593 20.4101 23.1528C20.128 22.3711 19.9893 21.5479 19.9985 20.72C19.9985 19.8644 20.1419 19.0689 20.4194 18.3289C20.9512 16.8905 22.0566 15.7389 23.4673 15.1423C24.2211 14.8278 25.0305 14.6705 25.8491 14.6797C26.8204 14.6797 27.6621 14.8648 28.3929 15.244C29.0964 15.6061 29.7072 16.1252 30.1781 16.761C30.6453 17.3946 30.9736 18.1161 31.1818 18.9301C31.3806 19.7302 31.45 20.572 31.3945 21.46ZM25.752 17.0385C25.2525 17.0385 24.8316 17.1264 24.5079 17.2975C24.1841 17.4686 23.9159 17.6814 23.7124 17.9265C23.5186 18.1632 23.3753 18.4371 23.2915 18.7313C23.2175 18.9764 23.1666 19.2261 23.1481 19.4805H28.2588C28.1848 18.6804 27.9073 18.0884 27.5373 17.6721C27.1488 17.2605 26.5244 17.0385 25.752 17.0385ZM14.2589 16.5714C14.6612 16.28 14.8555 15.799 14.8555 15.1376C14.8694 14.8231 14.8046 14.5133 14.6659 14.2311C14.541 14.0045 14.356 13.8149 14.1294 13.6807C13.8944 13.5383 13.6334 13.4439 13.3616 13.4032C13.0656 13.3477 12.765 13.32 12.469 13.3246H9.21762V17.0107H12.7373C13.3431 17.0154 13.8565 16.8674 14.2589 16.5714ZM14.8046 19.9014C14.3514 19.5545 13.7455 19.3834 12.9916 19.3834H9.20837V23.7309H12.9176C13.2645 23.7309 13.5836 23.6985 13.8935 23.6338C14.2034 23.569 14.4809 23.458 14.7168 23.3007C14.9526 23.1481 15.1423 22.94 15.2856 22.6718C15.4244 22.4035 15.4938 22.0612 15.4938 21.6496C15.4938 20.831 15.2625 20.2529 14.8046 19.9014Z" fill="#6A6A6A"/>
</svg>
