<svg width="37" height="37" viewBox="0 0 37 37" fill="none" xmlns="http://www.w3.org/2000/svg">
<rect width="37" height="37" rx="2" fill="#6A6A6A"/>
<path d="M34 27.25V10.75C34 9.22833 32.779 8 31.2663 8H5.73369C4.22105 8 3 9.22833 3 10.75V27.25C3 28.7717 4.22105 30 5.73369 30H31.2663C32.779 30 34 28.7717 34 27.25ZM31.6126 10.5483C32.214 11.1533 31.8859 11.7767 31.5579 12.0883L24.1587 18.9083L31.2663 26.3517C31.485 26.6083 31.6308 27.0117 31.3757 27.2867C31.1387 27.58 30.592 27.5617 30.3551 27.3783L22.3909 20.54L18.4909 24.115L14.6091 20.54L6.64491 27.3783C6.408 27.5617 5.86126 27.58 5.62434 27.2867C5.36919 27.0117 5.51499 26.6083 5.73369 26.3517L12.8413 18.9083L5.44209 12.0883C5.11405 11.7767 4.78601 11.1533 5.38742 10.5483C5.98883 9.94333 6.60847 10.2367 7.11875 10.6767L18.4909 19.9167L29.8812 10.6767C30.3915 10.2367 31.0112 9.94333 31.6126 10.5483Z" fill="#1E1D1D"/>
</svg>
