<svg width="37" height="37" viewBox="0 0 37 37" fill="none" xmlns="http://www.w3.org/2000/svg">
<rect width="37" height="37" rx="2" fill="#6A6A6A"/>
<path fill-rule="evenodd" clip-rule="evenodd" d="M18.5 2C9.38375 2 2 9.57051 2 18.9173C2 26.4033 6.72312 32.7261 13.2819 34.9677C14.1069 35.1157 14.4162 34.6082 14.4162 34.1641C14.4162 33.7623 14.3956 32.4301 14.3956 31.0133C10.25 31.7957 9.1775 29.9771 8.8475 29.0255C8.66187 28.5391 7.8575 27.0377 7.15625 26.6359C6.57875 26.3187 5.75375 25.5363 7.13562 25.5151C8.435 25.494 9.36312 26.7416 9.6725 27.2491C11.1575 29.8079 13.5294 29.0889 14.4781 28.6448C14.6225 27.5452 15.0556 26.8051 15.53 26.3821C11.8587 25.9592 8.0225 24.5001 8.0225 18.0292C8.0225 16.1894 8.66187 14.6669 9.71375 13.4827C9.54875 13.0597 8.97125 11.3257 9.87875 8.99955C9.87875 8.99955 11.2606 8.55547 14.4162 10.7336C15.7362 10.3529 17.1387 10.1626 18.5412 10.1626C19.9437 10.1626 21.3462 10.3529 22.6662 10.7336C25.8219 8.53433 27.2037 8.99955 27.2037 8.99955C28.1112 11.3257 27.5337 13.0597 27.3688 13.4827C28.4206 14.6669 29.06 16.1683 29.06 18.0292C29.06 24.5212 25.2031 25.9592 21.5319 26.3821C22.13 26.9108 22.6456 27.9258 22.6456 29.5118C22.6456 31.7745 22.625 33.5932 22.625 34.1641C22.625 34.6082 22.9344 35.1369 23.7594 34.9677C27.0349 33.8338 29.8811 31.6754 31.8975 28.7962C33.914 25.917 34.999 22.4619 35 18.9173C35 9.57051 27.6162 2 18.5 2Z" fill="#1E1D1D"/>
</svg>
