<svg width="37" height="37" viewBox="0 0 37 37" fill="none" xmlns="http://www.w3.org/2000/svg">
<path d="M31.5257 31.5262H26.0435V22.9407C26.0435 20.8934 26.007 18.2579 23.1922 18.2579C20.3368 18.2579 19.8999 20.4885 19.8999 22.7916V31.5257H14.4179V13.8703H19.6807V16.2831H19.7544C20.2811 15.3826 21.0422 14.6417 21.9566 14.1395C22.871 13.6372 23.9045 13.3924 24.9471 13.4311C30.5036 13.4311 31.528 17.086 31.528 21.8408L31.5257 31.5262V31.5262ZM8.23192 11.4571C6.47486 11.4574 5.05021 10.0332 5.04992 8.27609C5.04963 6.51903 6.4737 5.09438 8.23077 5.09409C9.98783 5.09366 11.4125 6.51787 11.4128 8.27494C11.4129 9.11871 11.0779 9.928 10.4814 10.5248C9.88485 11.1215 9.0757 11.4569 8.23192 11.4571V11.4571ZM10.9731 31.5264H5.48511V13.8703H10.973V31.5262L10.9731 31.5264ZM34.2588 0.00269289H2.73034C1.24022 -0.0140727 0.0182109 1.17961 0 2.66973V34.3297C0.0176328 35.8206 1.2395 37.0154 2.7302 36.9998H34.2588C35.7527 37.0183 36.9793 35.8235 37 34.3297V2.66727C36.9788 1.17426 35.752 -0.0192759 34.2588 0.000235859" fill="#6A6A6A"/>
</svg>
